<svg width="445" height="148" viewBox="0 0 445 148" fill="none" xmlns="http://www.w3.org/2000/svg">
<path d="M60.1372 46.6146L19.3759 87.3759L8.66146 76.6615C2.48874 70.4887 5.42445 59.9501 13.9083 57.8898L60.1497 46.6272L60.1372 46.6146Z" fill="url(#paint0_linear_75_58)"/>
<path d="M111.006 50.8489L106.748 68.3304L53.5391 121.539L26.8534 94.8535L80.2 41.507L97.4559 37.299C105.614 35.3137 112.991 42.6909 110.993 50.8364L111.006 50.8489Z" fill="url(#paint1_linear_75_58)"/>
<path d="M102.016 88.6439L90.7788 134.76C88.706 143.231 78.1673 146.167 71.9946 139.994L61.3303 129.33L102.016 88.6439Z" fill="url(#paint2_linear_75_58)"/>
<path d="M177.668 118C172.63 118 168.258 117.125 164.552 115.392C160.846 113.659 157.769 111.302 155.304 108.337C152.84 105.371 151.005 102.049 149.799 98.3872C148.594 94.7076 148 90.9565 148 87.0804C148 83.2043 148.594 79.4353 149.799 75.7378C151.005 72.0403 152.858 68.7001 155.34 65.7349C157.841 62.7698 160.954 60.412 164.714 58.6436C168.474 56.8753 172.864 56 177.901 56C181.842 56 185.224 56.4823 188.013 57.4647C190.801 58.4471 193.158 59.7154 195.083 61.2515C197.008 62.8055 198.537 64.4489 199.689 66.1815C200.84 67.932 201.722 69.5753 202.316 71.1651C202.909 72.737 203.431 74.5053 203.881 76.4702H194.274C193.842 74.8447 193.302 73.4336 192.672 72.2725C192.043 71.1115 191.125 69.9147 189.92 68.7179C188.714 67.5212 187.131 66.5387 185.188 65.7349C183.245 64.949 180.852 64.556 177.991 64.556C174.591 64.556 171.623 65.1991 169.068 66.4673C166.513 67.7534 164.408 69.4503 162.735 71.5759C161.062 73.7015 159.82 76.0951 158.993 78.7566C158.165 81.418 157.751 84.1331 157.751 86.9196C157.751 89.7061 158.183 92.5105 159.029 95.2077C159.874 97.9049 161.134 100.316 162.807 102.478C164.48 104.621 166.549 106.318 169.05 107.568C171.551 108.819 174.465 109.444 177.812 109.444C183.011 109.444 187.149 107.979 190.225 105.032C193.302 102.103 194.993 98.1193 195.317 93.1178H177.973V85.4549H204.601V89.7776C204.601 95.9758 203.413 101.174 201.02 105.354C198.627 109.551 195.407 112.695 191.323 114.821C187.239 116.946 182.687 118 177.632 118H177.668Z" fill="#1C1C1C"/>
<path d="M235.042 118C230.274 118 226.262 116.946 223.006 114.82C219.749 112.695 217.285 109.926 215.611 106.497C213.938 103.067 213.111 99.4232 213.111 95.5649C213.111 91.7067 213.938 88.0628 215.611 84.6332C217.285 81.2036 219.749 78.435 223.006 76.3094C226.262 74.1838 230.274 73.1299 235.042 73.1299C239.81 73.1299 243.732 74.1838 247.006 76.3094C250.263 78.435 252.727 81.2036 254.401 84.6332C256.074 88.0628 256.901 91.7067 256.901 95.5649C256.901 99.4232 256.074 103.067 254.401 106.497C252.727 109.926 250.263 112.695 247.006 114.82C243.75 116.946 239.756 118 235.042 118ZM235.042 110.087C237.723 110.087 239.99 109.408 241.825 108.051C243.66 106.693 245.063 104.889 246.017 102.656C246.97 100.423 247.456 98.0656 247.456 95.5649C247.456 93.0642 246.97 90.6349 246.017 88.42C245.063 86.2229 243.66 84.4367 241.825 83.0792C239.99 81.7216 237.723 81.0429 235.042 81.0429C232.361 81.0429 230.076 81.7216 228.223 83.0792C226.352 84.4367 224.967 86.2229 224.031 88.42C223.096 90.6171 222.628 93.0106 222.628 95.5649C222.628 98.1192 223.096 100.423 224.031 102.656C224.967 104.889 226.352 106.675 228.223 108.051C230.076 109.408 232.361 110.087 235.042 110.087Z" fill="#1C1C1C"/>
<path d="M267.822 117.196V56.8218H288.62C293.495 56.8218 297.759 57.6792 301.448 59.3939C305.118 61.1087 308.176 63.413 310.605 66.2888C313.034 69.1646 314.887 72.4156 316.11 76.0059C317.334 79.5962 317.964 83.258 317.964 87.0269C317.964 90.7958 317.352 94.4576 316.11 98.0479C314.869 101.638 313.034 104.871 310.605 107.765C308.158 110.659 305.118 112.945 301.448 114.66C297.777 116.375 293.495 117.232 288.62 117.232H267.822V117.196ZM288.206 65.1456H277.447V108.801H288.206C291.606 108.801 294.557 108.194 297.076 106.961C299.594 105.729 301.681 104.085 303.319 101.978C304.956 99.8878 306.215 97.5478 307.061 94.9578C307.906 92.3677 308.338 89.7241 308.338 87.009C308.338 84.294 307.906 81.6325 307.061 79.0067C306.215 76.3988 304.956 74.0589 303.319 71.9869C301.681 69.9148 299.594 68.2536 297.076 67.0033C294.557 65.7529 291.588 65.1277 288.206 65.1277V65.1456Z" fill="#1C1C1C"/>
<path d="M322.065 117.196L343.277 56.8218H355.601L376.885 117.196H366.774L362.096 103.657H336.872L332.194 117.196H322.083H322.065ZM339.733 95.1721H359.217L349.52 67.0211L339.733 95.1721Z" fill="#1C1C1C"/>
<path d="M386.402 117.196V56.8218H399.14L415.656 91.171L432.424 56.8218H445V117.196H435.555V71.0223L420.19 102.192H411.23L395.866 70.8615V117.214H386.42L386.402 117.196Z" fill="#1C1C1C"/>
<defs>
<linearGradient id="paint0_linear_75_58" x1="8.3061" y1="79.815" x2="50.8218" y2="37.2993" gradientUnits="userSpaceOnUse">
<stop stop-color="#AB3A6C"/>
<stop offset="1" stop-color="#E6533A"/>
</linearGradient>
<linearGradient id="paint1_linear_75_58" x1="37.2744" y1="111.118" x2="108.079" y2="40.3141" gradientUnits="userSpaceOnUse">
<stop stop-color="#AB3A6C"/>
<stop offset="1" stop-color="#E6533A"/>
</linearGradient>
<linearGradient id="paint2_linear_75_58" x1="68.8783" y1="140.38" x2="111.316" y2="97.9431" gradientUnits="userSpaceOnUse">
<stop stop-color="#AB3A6C"/>
<stop offset="1" stop-color="#E6533A"/>
</linearGradient>
</defs>
</svg>
